<?xml version="1.0" encoding="utf-8"?>
<!-- Generator: Adobe Illustrator 16.0.0, SVG Export Plug-In . SVG Version: 6.00 Build 0)  -->
<!DOCTYPE svg PUBLIC "-//W3C//DTD SVG 1.1//EN" "http://www.w3.org/Graphics/SVG/1.1/DTD/svg11.dtd">
<svg version="1.1" xmlns="http://www.w3.org/2000/svg" xmlns:xlink="http://www.w3.org/1999/xlink" x="0px" y="0px" width="792px"
	 height="576px" viewBox="0 0 792 576" enable-background="new 0 0 792 576" xml:space="preserve">
<g id="notusedspacer" display="none">
	<polygon display="inline" fill="none" stroke="#000000" stroke-miterlimit="10" points="37,71 72,34 721,34 757,71 757,502 
		721,538 72,538 37,502 	"/>
	<g id="outline_copy" display="inline">
		<rect x="-72" y="-180" display="none" fill="#FF70FF" stroke="#000000" stroke-miterlimit="10" width="936" height="936"/>
		<circle fill="none" stroke="#000000" stroke-miterlimit="10" cx="37.337" cy="540.339" r="11.337"/>
		<circle fill="none" stroke="#000000" stroke-miterlimit="10" cx="37.338" cy="36.661" r="11.338"/>
		<circle fill="none" stroke="#000000" stroke-miterlimit="10" cx="756.338" cy="36.339" r="11.338"/>
		<circle fill="none" stroke="#000000" stroke-miterlimit="10" cx="756.668" cy="540.681" r="11.338"/>
		<g>
			<path fill="none" stroke="#000000" stroke-miterlimit="10" d="M792,540c0,19.8-16.2,36-36,36H37c-19.8,0-36-16.2-36-36V36
				C1,16.2,17.2,0,37,0h719c19.8,0,36,16.2,36,36V540z"/>
		</g>
	</g>
</g>
<g id="buttons" display="none">
	
		<rect x="528.916" y="164.095" transform="matrix(0.9659 -0.2588 0.2588 0.9659 -30.5166 150.3911)" display="inline" fill="none" stroke="#000000" stroke-width="0.96" stroke-linecap="round" stroke-linejoin="round" stroke-miterlimit="10" width="54" height="54"/>
	
		<rect x="536.074" y="171.252" transform="matrix(0.9659 -0.2588 0.2588 0.9659 -30.5163 150.3889)" display="inline" fill="none" stroke="#000000" stroke-width="0.96" stroke-linecap="round" stroke-linejoin="round" stroke-miterlimit="10" width="39.685" height="39.685"/>
	
		<circle display="inline" fill="none" stroke="#000000" stroke-width="0.96" stroke-linecap="round" stroke-linejoin="round" stroke-miterlimit="10" cx="555.917" cy="191.096" r="1.417"/>
	
		<rect x="514.433" y="110.229" transform="matrix(0.9659 -0.2588 0.2588 0.9659 -17.0687 144.8121)" display="inline" fill="none" stroke="#000000" stroke-width="0.96" stroke-linecap="round" stroke-linejoin="round" stroke-miterlimit="10" width="54" height="54"/>
	
		<rect x="521.59" y="117.386" transform="matrix(0.9659 -0.2588 0.2588 0.9659 -17.0685 144.8117)" display="inline" fill="none" stroke="#000000" stroke-width="0.96" stroke-linecap="round" stroke-linejoin="round" stroke-miterlimit="10" width="39.685" height="39.685"/>
	
		<circle display="inline" fill="none" stroke="#000000" stroke-width="0.96" stroke-linecap="round" stroke-linejoin="round" stroke-miterlimit="10" cx="541.433" cy="137.23" r="1.417"/>
	
		<rect x="369.005" y="189.995" display="inline" fill="none" stroke="#000000" stroke-width="0.96" stroke-linecap="round" stroke-linejoin="round" stroke-miterlimit="10" width="54" height="54"/>
	
		<rect x="376.162" y="197.152" display="inline" fill="none" stroke="#000000" stroke-width="0.96" stroke-linecap="round" stroke-linejoin="round" stroke-miterlimit="10" width="39.686" height="39.685"/>
	
		<circle display="inline" fill="none" stroke="#000000" stroke-width="0.96" stroke-linecap="round" stroke-linejoin="round" stroke-miterlimit="10" cx="396.005" cy="216.995" r="1.417"/>
	
		<rect x="210.932" y="163.931" transform="matrix(0.9659 0.2588 -0.2588 0.9659 57.521 -55.0732)" display="inline" fill="none" stroke="#000000" stroke-width="0.96" stroke-linecap="round" stroke-linejoin="round" stroke-miterlimit="10" width="54" height="54.001"/>
	
		<rect x="218.089" y="171.09" transform="matrix(0.9659 0.2588 -0.2588 0.9659 57.5252 -55.0763)" display="inline" fill="none" stroke="#000000" stroke-width="0.96" stroke-linecap="round" stroke-linejoin="round" stroke-miterlimit="10" width="39.685" height="39.684"/>
	
		<circle display="inline" fill="none" stroke="#000000" stroke-width="0.96" stroke-linecap="round" stroke-linejoin="round" stroke-miterlimit="10" cx="237.931" cy="190.932" r="1.417"/>
	
		<rect x="163.704" y="122.961" transform="matrix(0.9659 0.2588 -0.2588 0.9659 45.312 -44.2487)" display="inline" fill="none" stroke="#000000" stroke-width="0.96" stroke-linecap="round" stroke-linejoin="round" stroke-miterlimit="10" width="54" height="54.001"/>
	
		<rect x="170.862" y="130.118" transform="matrix(0.9659 0.2588 -0.2588 0.9659 45.3065 -44.2449)" display="inline" fill="none" stroke="#000000" stroke-width="0.96" stroke-linecap="round" stroke-linejoin="round" stroke-miterlimit="10" width="39.686" height="39.685"/>
	
		<circle display="inline" fill="none" stroke="#000000" stroke-width="0.96" stroke-linecap="round" stroke-linejoin="round" stroke-miterlimit="10" cx="190.704" cy="149.961" r="1.417"/>
	
		<rect x="108.932" y="108.068" transform="matrix(0.9659 0.2588 -0.2588 0.9659 39.591 -30.5798)" display="inline" fill="none" stroke="#000000" stroke-width="0.96" stroke-linecap="round" stroke-linejoin="round" stroke-miterlimit="10" width="54" height="54.001"/>
	
		<rect x="116.089" y="115.226" transform="matrix(0.9659 0.2588 -0.2588 0.9659 39.5904 -30.5795)" display="inline" fill="none" stroke="#000000" stroke-width="0.96" stroke-linecap="round" stroke-linejoin="round" stroke-miterlimit="10" width="39.686" height="39.685"/>
	
		<circle display="inline" fill="none" stroke="#000000" stroke-width="0.96" stroke-linecap="round" stroke-linejoin="round" stroke-miterlimit="10" cx="135.931" cy="135.069" r="1.417"/>
	
		<rect x="178.796" y="69.068" transform="matrix(0.9659 0.2588 -0.2588 0.9659 31.8781 -49.992)" display="inline" fill="none" stroke="#000000" stroke-width="0.96" stroke-linecap="round" stroke-linejoin="round" stroke-miterlimit="10" width="53.999" height="54"/>
	
		<rect x="185.953" y="76.225" transform="matrix(0.9659 0.2588 -0.2588 0.9659 31.8772 -49.9911)" display="inline" fill="none" stroke="#000000" stroke-width="0.96" stroke-linecap="round" stroke-linejoin="round" stroke-miterlimit="10" width="39.685" height="39.685"/>
	
		<circle display="inline" fill="none" stroke="#000000" stroke-width="0.96" stroke-linecap="round" stroke-linejoin="round" stroke-miterlimit="10" cx="205.795" cy="96.069" r="1.417"/>
	
		<rect x="47.932" y="117.932" transform="matrix(0.9659 0.2588 -0.2588 0.9659 40.0655 -14.4555)" display="inline" fill="none" stroke="#000000" stroke-width="0.96" stroke-linecap="round" stroke-linejoin="round" stroke-miterlimit="10" width="54" height="54"/>
	
		<rect x="55.089" y="125.088" transform="matrix(0.9659 0.2588 -0.2588 0.9659 40.0605 -14.4545)" display="inline" fill="none" stroke="#000000" stroke-width="0.96" stroke-linecap="round" stroke-linejoin="round" stroke-miterlimit="10" width="39.686" height="39.685"/>
	
		<circle display="inline" fill="none" stroke="#000000" stroke-width="0.96" stroke-linecap="round" stroke-linejoin="round" stroke-miterlimit="10" cx="74.931" cy="144.931" r="1.417"/>
	
		<rect x="228.859" y="350.068" transform="matrix(0.9659 0.2588 -0.2588 0.9659 106.3129 -53.3737)" display="inline" fill="none" stroke="#000000" stroke-width="0.96" stroke-linecap="round" stroke-linejoin="round" stroke-miterlimit="10" width="54" height="54"/>
	
		<rect x="236.017" y="357.225" transform="matrix(0.9659 0.2588 -0.2588 0.9659 106.3112 -53.3733)" display="inline" fill="none" stroke="#000000" stroke-width="0.96" stroke-linecap="round" stroke-linejoin="round" stroke-miterlimit="10" width="39.686" height="39.685"/>
	
		<circle display="inline" fill="none" stroke="#000000" stroke-width="0.96" stroke-linecap="round" stroke-linejoin="round" stroke-miterlimit="10" cx="255.859" cy="377.069" r="1.417"/>
	
		<rect x="282.932" y="364.718" transform="matrix(0.9659 0.2588 -0.2588 0.9659 111.9471 -66.8698)" display="inline" fill="none" stroke="#000000" stroke-width="0.96" stroke-linecap="round" stroke-linejoin="round" stroke-miterlimit="10" width="54" height="54"/>
	
		<rect x="290.089" y="371.876" transform="matrix(0.9659 0.2588 -0.2588 0.9659 111.9453 -66.869)" display="inline" fill="none" stroke="#000000" stroke-width="0.96" stroke-linecap="round" stroke-linejoin="round" stroke-miterlimit="10" width="39.686" height="39.684"/>
	
		<circle display="inline" fill="none" stroke="#000000" stroke-width="0.96" stroke-linecap="round" stroke-linejoin="round" stroke-miterlimit="10" cx="309.932" cy="391.718" r="1.417"/>
	
		<rect x="464.932" y="393.932" transform="matrix(0.9659 -0.2588 0.2588 0.9659 -92.1797 141.657)" display="inline" fill="none" stroke="#000000" stroke-width="0.96" stroke-linecap="round" stroke-linejoin="round" stroke-miterlimit="10" width="54" height="54"/>
	
		<rect x="472.089" y="401.089" transform="matrix(0.9659 -0.2588 0.2588 0.9659 -92.1844 141.6667)" display="inline" fill="none" stroke="#000000" stroke-width="0.96" stroke-linecap="round" stroke-linejoin="round" stroke-miterlimit="10" width="39.685" height="39.685"/>
	
		<circle display="inline" fill="none" stroke="#000000" stroke-width="0.96" stroke-linecap="round" stroke-linejoin="round" stroke-miterlimit="10" cx="491.932" cy="420.932" r="1.417"/>
	
		<rect x="511.522" y="349.772" transform="matrix(0.9659 -0.2588 0.2588 0.9659 -79.1633 152.2104)" display="inline" fill="none" stroke="#000000" stroke-width="0.96" stroke-linecap="round" stroke-linejoin="round" stroke-miterlimit="10" width="54" height="54"/>
	
		<rect x="518.679" y="356.927" transform="matrix(0.9659 -0.2588 0.2588 0.9659 -79.1652 152.2169)" display="inline" fill="none" stroke="#000000" stroke-width="0.96" stroke-linecap="round" stroke-linejoin="round" stroke-miterlimit="10" width="39.686" height="39.686"/>
	
		<circle display="inline" fill="none" stroke="#000000" stroke-width="0.96" stroke-linecap="round" stroke-linejoin="round" stroke-miterlimit="10" cx="538.522" cy="376.772" r="1.417"/>
	
		<rect x="450.417" y="340.048" transform="matrix(0.9659 -0.2588 0.2588 0.9659 -78.7288 136.0647)" display="inline" fill="none" stroke="#000000" stroke-width="0.96" stroke-linecap="round" stroke-linejoin="round" stroke-miterlimit="10" width="54" height="54.001"/>
	
		<rect x="457.574" y="347.206" transform="matrix(0.9659 -0.2588 0.2588 0.9659 -78.7311 136.0705)" display="inline" fill="none" stroke="#000000" stroke-width="0.96" stroke-linecap="round" stroke-linejoin="round" stroke-miterlimit="10" width="39.686" height="39.685"/>
	
		<circle display="inline" fill="none" stroke="#000000" stroke-width="0.96" stroke-linecap="round" stroke-linejoin="round" stroke-miterlimit="10" cx="477.417" cy="367.049" r="1.417"/>
	
		<rect x="497.068" y="295.365" transform="matrix(0.9659 -0.2588 0.2588 0.9659 -65.578 146.6262)" display="inline" fill="none" stroke="#000000" stroke-width="0.96" stroke-linecap="round" stroke-linejoin="round" stroke-miterlimit="10" width="54" height="54"/>
	
		<rect x="504.226" y="302.522" transform="matrix(0.9659 -0.2588 0.2588 0.9659 -65.5778 146.6259)" display="inline" fill="none" stroke="#000000" stroke-width="0.96" stroke-linecap="round" stroke-linejoin="round" stroke-miterlimit="10" width="39.685" height="39.685"/>
	
		<circle display="inline" fill="none" stroke="#000000" stroke-width="0.96" stroke-linecap="round" stroke-linejoin="round" stroke-miterlimit="10" cx="524.068" cy="322.366" r="1.416"/>
	
		<rect x="558.999" y="309.068" transform="matrix(0.9659 -0.2588 0.2588 0.9659 -67.0145 163.1224)" display="inline" fill="none" stroke="#000000" stroke-width="0.96" stroke-linecap="round" stroke-linejoin="round" stroke-miterlimit="10" width="54" height="54.001"/>
	
		<rect x="566.157" y="316.225" transform="matrix(0.9659 -0.2588 0.2588 0.9659 -67.0141 163.122)" display="inline" fill="none" stroke="#000000" stroke-width="0.96" stroke-linecap="round" stroke-linejoin="round" stroke-miterlimit="10" width="39.685" height="39.685"/>
	
		<circle display="inline" fill="none" stroke="#000000" stroke-width="0.96" stroke-linecap="round" stroke-linejoin="round" stroke-miterlimit="10" cx="586" cy="336.069" r="1.417"/>
	
		<rect x="576" y="122" transform="matrix(0.9659 -0.2588 0.2588 0.9659 -18.0176 161.1373)" display="inline" fill="none" stroke="#000000" stroke-width="0.96" stroke-linecap="round" stroke-linejoin="round" stroke-miterlimit="10" width="54" height="54"/>
	
		<rect x="583.157" y="129.157" transform="matrix(0.9659 -0.2588 0.2588 0.9659 -18.0173 161.1478)" display="inline" fill="none" stroke="#000000" stroke-width="0.96" stroke-linecap="round" stroke-linejoin="round" stroke-miterlimit="10" width="39.685" height="39.685"/>
	
		<circle display="inline" fill="none" stroke="#000000" stroke-width="0.96" stroke-linecap="round" stroke-linejoin="round" stroke-miterlimit="10" cx="603" cy="149" r="1.416"/>
	
		<rect x="561.297" y="68.092" transform="matrix(0.9659 -0.2588 0.2588 0.9659 -4.5657 155.5057)" display="inline" fill="none" stroke="#000000" stroke-width="0.96" stroke-linecap="round" stroke-linejoin="round" stroke-miterlimit="10" width="54" height="54.001"/>
	
		<rect x="568.454" y="75.25" transform="matrix(0.9659 -0.2588 0.2588 0.9659 -4.5657 155.5052)" display="inline" fill="none" stroke="#000000" stroke-width="0.96" stroke-linecap="round" stroke-linejoin="round" stroke-miterlimit="10" width="39.685" height="39.685"/>
	
		<circle display="inline" fill="none" stroke="#000000" stroke-width="0.96" stroke-linecap="round" stroke-linejoin="round" stroke-miterlimit="10" cx="588.296" cy="95.092" r="1.417"/>
	
		<rect x="630.166" y="107.633" transform="matrix(0.9659 -0.2588 0.2588 0.9659 -12.4537 174.6662)" display="inline" fill="none" stroke="#000000" stroke-width="0.96" stroke-linecap="round" stroke-linejoin="round" stroke-miterlimit="10" width="54" height="54"/>
	
		<rect x="637.322" y="114.79" transform="matrix(0.9659 -0.2588 0.2588 0.9659 -12.4529 174.6772)" display="inline" fill="none" stroke="#000000" stroke-width="0.96" stroke-linecap="round" stroke-linejoin="round" stroke-miterlimit="10" width="39.685" height="39.685"/>
	
		<circle display="inline" fill="none" stroke="#000000" stroke-width="0.96" stroke-linecap="round" stroke-linejoin="round" stroke-miterlimit="10" cx="657.166" cy="134.633" r="1.417"/>
	
		<rect x="616.058" y="53.659" transform="matrix(0.9659 -0.2588 0.2588 0.9659 1.0353 169.1818)" display="inline" fill="none" stroke="#000000" stroke-width="0.96" stroke-linecap="round" stroke-linejoin="round" stroke-miterlimit="10" width="54" height="54"/>
	
		<rect x="623.214" y="60.816" transform="matrix(0.9659 -0.2588 0.2588 0.9659 1.036 169.1867)" display="inline" fill="none" stroke="#000000" stroke-width="0.96" stroke-linecap="round" stroke-linejoin="round" stroke-miterlimit="10" width="39.685" height="39.685"/>
	
		<circle display="inline" fill="none" stroke="#000000" stroke-width="0.96" stroke-linecap="round" stroke-linejoin="round" stroke-miterlimit="10" cx="643.058" cy="80.66" r="1.417"/>
	
		<rect x="677.126" y="65.536" transform="matrix(0.9659 -0.2588 0.2588 0.9659 0.0421 185.3918)" display="inline" fill="none" stroke="#000000" stroke-width="0.96" stroke-linecap="round" stroke-linejoin="round" stroke-miterlimit="10" width="54" height="54"/>
	
		<rect x="684.283" y="72.693" transform="matrix(0.9659 -0.2588 0.2588 0.9659 0.0425 185.393)" display="inline" fill="none" stroke="#000000" stroke-width="0.96" stroke-linecap="round" stroke-linejoin="round" stroke-miterlimit="10" width="39.686" height="39.685"/>
	
		<circle display="inline" fill="none" stroke="#000000" stroke-width="0.96" stroke-linecap="round" stroke-linejoin="round" stroke-miterlimit="10" cx="704.125" cy="92.536" r="1.417"/>
	
		<rect x="691.932" y="119.59" transform="matrix(0.9659 -0.2588 0.2588 0.9659 -13.4431 191.0719)" display="inline" fill="none" stroke="#000000" stroke-width="0.96" stroke-linecap="round" stroke-linejoin="round" stroke-miterlimit="10" width="54" height="54.001"/>
	
		<rect x="699.089" y="126.747" transform="matrix(0.9659 -0.2588 0.2588 0.9659 -13.4433 191.0669)" display="inline" fill="none" stroke="#000000" stroke-width="0.96" stroke-linecap="round" stroke-linejoin="round" stroke-miterlimit="10" width="39.686" height="39.685"/>
	
		<circle display="inline" fill="none" stroke="#000000" stroke-width="0.96" stroke-linecap="round" stroke-linejoin="round" stroke-miterlimit="10" cx="718.932" cy="146.591" r="1.417"/>
	<path display="inline" fill="none" stroke="#000000" stroke-miterlimit="10" d="M609,61c0,0.167,0,0.333,0,0.5"/>
	<path display="inline" fill="none" stroke="#000000" stroke-miterlimit="10" d="M637,167.5c0-0.884,0,0.815,0,1"/>
</g>
<g id="notused" display="none">
	<rect x="-72" y="-180" fill="#FF70FF" stroke="#000000" stroke-miterlimit="10" width="936" height="936"/>
	<circle display="inline" fill="none" stroke="#000000" stroke-miterlimit="10" cx="37.337" cy="540.339" r="11.337"/>
	<circle display="inline" fill="none" stroke="#000000" stroke-miterlimit="10" cx="37.33" cy="540.342" r="8.504"/>
	<circle display="inline" fill="none" stroke="#000000" stroke-miterlimit="10" cx="37.33" cy="540.342" r="1.8"/>
	<circle display="inline" fill="none" stroke="#000000" stroke-miterlimit="10" cx="37.338" cy="36.661" r="11.338"/>
	<circle display="inline" fill="none" stroke="#000000" stroke-miterlimit="10" cx="37.331" cy="36.664" r="8.504"/>
	<circle display="inline" fill="none" stroke="#000000" stroke-miterlimit="10" cx="37.331" cy="36.663" r="1.8"/>
	<circle display="inline" fill="none" stroke="#000000" stroke-miterlimit="10" cx="756.338" cy="36.339" r="11.338"/>
	<circle display="inline" fill="none" stroke="#000000" stroke-miterlimit="10" cx="756.331" cy="36.342" r="8.504"/>
	<circle display="inline" fill="none" stroke="#000000" stroke-miterlimit="10" cx="756.331" cy="36.342" r="1.8"/>
	<circle display="inline" fill="none" stroke="#000000" stroke-miterlimit="10" cx="756.668" cy="540.681" r="11.338"/>
	<circle display="inline" fill="none" stroke="#000000" stroke-miterlimit="10" cx="756.661" cy="540.684" r="8.504"/>
	<circle display="inline" fill="none" stroke="#000000" stroke-miterlimit="10" cx="756.661" cy="540.684" r="1.8"/>
	<g display="inline">
		<path fill="none" stroke="#000000" stroke-miterlimit="10" d="M792,540c0,19.8-16.2,36-36,36H37c-19.8,0-36-16.2-36-36V36
			C1,16.2,17.2,0,37,0h719c19.8,0,36,16.2,36,36V540z"/>
	</g>
</g>
<g id="backplate" display="none">
	<rect x="-72" y="-180" fill="#FF70FF" stroke="#000000" stroke-miterlimit="10" width="936" height="936"/>
	<circle display="inline" fill="none" stroke="#000000" stroke-miterlimit="10" cx="37.337" cy="540.339" r="11.337"/>
	<circle display="inline" fill="none" stroke="#000000" stroke-miterlimit="10" cx="37.338" cy="36.661" r="11.338"/>
	<circle display="inline" fill="none" stroke="#000000" stroke-miterlimit="10" cx="756.338" cy="36.339" r="11.338"/>
	<circle display="inline" fill="none" stroke="#000000" stroke-miterlimit="10" cx="756.668" cy="540.681" r="11.338"/>
	<g display="inline">
		<path fill="none" stroke="#000000" stroke-miterlimit="10" d="M792,540c0,19.8-16.2,36-36,36H37c-19.8,0-36-16.2-36-36V36
			C1,16.2,17.2,0,37,0h719c19.8,0,36,16.2,36,36V540z"/>
	</g>
</g>
<g id="keyplate" display="none">
	
		<rect x="536.074" y="171.252" transform="matrix(0.9659 -0.2588 0.2588 0.9659 -30.5163 150.3889)" display="inline" fill="none" stroke="#000000" stroke-width="0.96" stroke-linecap="round" stroke-linejoin="round" stroke-miterlimit="10" width="39.685" height="39.685"/>
	
		<rect x="521.59" y="117.386" transform="matrix(0.9659 -0.2588 0.2588 0.9659 -17.0685 144.8117)" display="inline" fill="none" stroke="#000000" stroke-width="0.96" stroke-linecap="round" stroke-linejoin="round" stroke-miterlimit="10" width="39.685" height="39.685"/>
	
		<rect x="376.162" y="197.152" display="inline" fill="none" stroke="#000000" stroke-width="0.96" stroke-linecap="round" stroke-linejoin="round" stroke-miterlimit="10" width="39.686" height="39.685"/>
	
		<rect x="218.089" y="171.09" transform="matrix(0.9659 0.2588 -0.2588 0.9659 57.5252 -55.0763)" display="inline" fill="none" stroke="#000000" stroke-width="0.96" stroke-linecap="round" stroke-linejoin="round" stroke-miterlimit="10" width="39.685" height="39.684"/>
	
		<rect x="170.862" y="130.118" transform="matrix(0.9659 0.2588 -0.2588 0.9659 45.3065 -44.2449)" display="inline" fill="none" stroke="#000000" stroke-width="0.96" stroke-linecap="round" stroke-linejoin="round" stroke-miterlimit="10" width="39.686" height="39.685"/>
	
		<rect x="116.089" y="115.226" transform="matrix(0.9659 0.2588 -0.2588 0.9659 39.5904 -30.5795)" display="inline" fill="none" stroke="#000000" stroke-width="0.96" stroke-linecap="round" stroke-linejoin="round" stroke-miterlimit="10" width="39.686" height="39.685"/>
	
		<rect x="185.953" y="76.225" transform="matrix(0.9659 0.2588 -0.2588 0.9659 31.8772 -49.9911)" display="inline" fill="none" stroke="#000000" stroke-width="0.96" stroke-linecap="round" stroke-linejoin="round" stroke-miterlimit="10" width="39.685" height="39.685"/>
	
		<rect x="55.089" y="125.088" transform="matrix(0.9659 0.2588 -0.2588 0.9659 40.0605 -14.4545)" display="inline" fill="none" stroke="#000000" stroke-width="0.96" stroke-linecap="round" stroke-linejoin="round" stroke-miterlimit="10" width="39.686" height="39.685"/>
	
		<rect x="236.017" y="357.225" transform="matrix(0.9659 0.2588 -0.2588 0.9659 106.3112 -53.3733)" display="inline" fill="none" stroke="#000000" stroke-width="0.96" stroke-linecap="round" stroke-linejoin="round" stroke-miterlimit="10" width="39.686" height="39.685"/>
	
		<rect x="290.089" y="371.876" transform="matrix(0.9659 0.2588 -0.2588 0.9659 111.9453 -66.869)" display="inline" fill="none" stroke="#000000" stroke-width="0.96" stroke-linecap="round" stroke-linejoin="round" stroke-miterlimit="10" width="39.686" height="39.684"/>
	
		<rect x="472.089" y="401.089" transform="matrix(0.9659 -0.2588 0.2588 0.9659 -92.1844 141.6667)" display="inline" fill="none" stroke="#000000" stroke-width="0.96" stroke-linecap="round" stroke-linejoin="round" stroke-miterlimit="10" width="39.685" height="39.685"/>
	
		<rect x="518.679" y="356.927" transform="matrix(0.9659 -0.2588 0.2588 0.9659 -79.1652 152.2169)" display="inline" fill="none" stroke="#000000" stroke-width="0.96" stroke-linecap="round" stroke-linejoin="round" stroke-miterlimit="10" width="39.686" height="39.686"/>
	
		<rect x="457.574" y="347.206" transform="matrix(0.9659 -0.2588 0.2588 0.9659 -78.7311 136.0705)" display="inline" fill="none" stroke="#000000" stroke-width="0.96" stroke-linecap="round" stroke-linejoin="round" stroke-miterlimit="10" width="39.686" height="39.685"/>
	
		<rect x="504.226" y="302.522" transform="matrix(0.9659 -0.2588 0.2588 0.9659 -65.5778 146.6259)" display="inline" fill="none" stroke="#000000" stroke-width="0.96" stroke-linecap="round" stroke-linejoin="round" stroke-miterlimit="10" width="39.685" height="39.685"/>
	
		<rect x="566.157" y="316.225" transform="matrix(0.9659 -0.2588 0.2588 0.9659 -67.0141 163.122)" display="inline" fill="none" stroke="#000000" stroke-width="0.96" stroke-linecap="round" stroke-linejoin="round" stroke-miterlimit="10" width="39.685" height="39.685"/>
	
		<rect x="583.157" y="129.157" transform="matrix(0.9659 -0.2588 0.2588 0.9659 -18.0173 161.1478)" display="inline" fill="none" stroke="#000000" stroke-width="0.96" stroke-linecap="round" stroke-linejoin="round" stroke-miterlimit="10" width="39.685" height="39.685"/>
	
		<rect x="568.454" y="75.25" transform="matrix(0.9659 -0.2588 0.2588 0.9659 -4.5657 155.5052)" display="inline" fill="none" stroke="#000000" stroke-width="0.96" stroke-linecap="round" stroke-linejoin="round" stroke-miterlimit="10" width="39.685" height="39.685"/>
	
		<rect x="637.322" y="114.79" transform="matrix(0.9659 -0.2588 0.2588 0.9659 -12.4529 174.6772)" display="inline" fill="none" stroke="#000000" stroke-width="0.96" stroke-linecap="round" stroke-linejoin="round" stroke-miterlimit="10" width="39.685" height="39.685"/>
	
		<rect x="623.214" y="60.816" transform="matrix(0.9659 -0.2588 0.2588 0.9659 1.036 169.1867)" display="inline" fill="none" stroke="#000000" stroke-width="0.96" stroke-linecap="round" stroke-linejoin="round" stroke-miterlimit="10" width="39.685" height="39.685"/>
	
		<rect x="684.283" y="72.693" transform="matrix(0.9659 -0.2588 0.2588 0.9659 0.0425 185.393)" display="inline" fill="none" stroke="#000000" stroke-width="0.96" stroke-linecap="round" stroke-linejoin="round" stroke-miterlimit="10" width="39.686" height="39.685"/>
	
		<rect x="699.089" y="126.747" transform="matrix(0.9659 -0.2588 0.2588 0.9659 -13.4433 191.0669)" display="inline" fill="none" stroke="#000000" stroke-width="0.96" stroke-linecap="round" stroke-linejoin="round" stroke-miterlimit="10" width="39.686" height="39.685"/>
	<path display="inline" fill="none" stroke="#000000" stroke-miterlimit="10" d="M609,61c0,0.167,0,0.333,0,0.5"/>
	<rect x="37" y="285" display="inline" fill="none" stroke="#000000" stroke-miterlimit="10" width="162" height="216"/>
	<g id="_x3C_Layer_x3E__copy_2" display="inline">
		<rect x="-72" y="-180" display="none" fill="#FF70FF" stroke="#000000" stroke-miterlimit="10" width="936" height="936"/>
		<circle fill="none" stroke="#000000" stroke-miterlimit="10" cx="37.33" cy="540.342" r="8.504"/>
		<circle fill="none" stroke="#000000" stroke-miterlimit="10" cx="37.331" cy="36.664" r="8.504"/>
		<circle fill="none" stroke="#000000" stroke-miterlimit="10" cx="756.331" cy="36.342" r="8.504"/>
		<circle fill="none" stroke="#000000" stroke-miterlimit="10" cx="756.661" cy="540.684" r="8.504"/>
		<g>
			<path fill="none" stroke="#000000" stroke-miterlimit="10" d="M792,540c0,19.8-16.2,36-36,36H37c-19.8,0-36-16.2-36-36V36
				C1,16.2,17.2,0,37,0h719c19.8,0,36,16.2,36,36V540z"/>
		</g>
	</g>
	<rect x="361" display="inline" fill="none" stroke="#000000" stroke-miterlimit="10" width="72" height="72"/>
	<g display="inline">
		<circle fill="none" stroke="#000000" stroke-miterlimit="10" cx="264.5" cy="501.5" r="36.5"/>
		<circle fill="none" stroke="#000000" stroke-miterlimit="10" cx="264.5" cy="501.5" r="11.5"/>
	</g>
	<g display="inline">
		<circle fill="none" stroke="#000000" stroke-miterlimit="10" cx="361" cy="501.5" r="36.5"/>
		<circle fill="none" stroke="#000000" stroke-miterlimit="10" cx="361" cy="501.5" r="11.5"/>
	</g>
	<g display="inline">
		<circle fill="none" stroke="#000000" stroke-miterlimit="10" cx="458" cy="501.5" r="36.5"/>
		<circle fill="none" stroke="#000000" stroke-miterlimit="10" cx="458" cy="501.5" r="11.5"/>
	</g>
	<g display="inline">
		<circle fill="none" stroke="#000000" stroke-miterlimit="10" cx="557" cy="501.5" r="36.5"/>
		<circle fill="none" stroke="#000000" stroke-miterlimit="10" cx="557" cy="501.5" r="11.5"/>
	</g>
	<g display="inline">
		<circle fill="none" stroke="#000000" stroke-miterlimit="10" cx="647.5" cy="501.5" r="36.5"/>
		<circle fill="none" stroke="#000000" stroke-miterlimit="10" cx="647.5" cy="501.5" r="11.5"/>
	</g>
	<g display="inline">
		<circle fill="none" stroke="#000000" stroke-miterlimit="10" cx="720.5" cy="422.5" r="36.5"/>
		<circle fill="none" stroke="#000000" stroke-miterlimit="10" cx="720.5" cy="422.5" r="11.5"/>
	</g>
	<g display="inline">
		<circle fill="none" stroke="#000000" stroke-miterlimit="10" cx="720.5" cy="332.5" r="36.5"/>
		<circle fill="none" stroke="#000000" stroke-miterlimit="10" cx="720.5" cy="332.5" r="11.5"/>
	</g>
	<g display="inline">
		<circle fill="none" stroke="#000000" stroke-miterlimit="10" cx="720.5" cy="237.5" r="36.5"/>
		<circle fill="none" stroke="#000000" stroke-miterlimit="10" cx="720.5" cy="237.5" r="11.5"/>
	</g>
</g>
<g id="keyspacer">
	<polygon fill="none" stroke="#000000" stroke-miterlimit="10" points="534,229 504,115 558,101 551,74 665,43 672,69 726,55 
		756,168 696,184 689,159 587,186 594,213 	"/>
	<polygon fill="none" stroke="#000000" stroke-miterlimit="10" points="545,285 486,301 494,331 440,345 470,458 529,443 521,413 
		575,398 569,372 623,358 607,299 553,313 	"/>
	<rect x="365" y="186" fill="none" stroke="#000000" stroke-miterlimit="10" width="62" height="62"/>
	<polygon fill="none" stroke="#000000" stroke-miterlimit="10" points="235,339 348,370 332,431 218,400 	"/>
	<polygon fill="none" stroke="#000000" stroke-miterlimit="10" points="259,228 275,169 221,155 243,75 184,59 170,112 114,97 
		108,122 53,108 38,166 97,182 103,158 208,186 201,212 	"/>
	<g id="_x3C_Layer_x3E__copy">
		<rect x="-72" y="-180" display="none" fill="#FF70FF" stroke="#000000" stroke-miterlimit="10" width="936" height="936"/>
		<circle fill="none" stroke="#000000" stroke-miterlimit="10" cx="37.33" cy="540.342" r="8.504"/>
		<circle fill="none" stroke="#000000" stroke-miterlimit="10" cx="37.331" cy="36.664" r="8.504"/>
		<circle fill="none" stroke="#000000" stroke-miterlimit="10" cx="756.331" cy="36.342" r="8.504"/>
		<circle fill="none" stroke="#000000" stroke-miterlimit="10" cx="756.661" cy="540.684" r="8.504"/>
		<g>
			<path fill="none" stroke="#000000" stroke-miterlimit="10" d="M792,540c0,19.8-16.2,36-36,36H37c-19.8,0-36-16.2-36-36V36
				C1,16.2,17.2,0,37,0h719c19.8,0,36,16.2,36,36V540z"/>
		</g>
	</g>
</g>
</svg>
